<?xml version="1.0" encoding="UTF-8"?><svg xmlns="http://www.w3.org/2000/svg" viewBox="0 0 383.55 370.37"><defs><style>.cls-1{fill:#5556e6;}</style></defs><g id="Livello_6_copia"><path d="M345.89,184.93c0-.2-.01-.41-.01-.61,0-1.52-.04-3.03-.08-4.53-.03-.88-.07-1.76-.12-2.64-.04-.8-.08-1.59-.13-2.39-.07-1.1-.15-2.19-.25-3.29-.04-.44-.08-.87-.12-1.3-2.44-26.09-11.25-50.31-24.89-71.07v52.75l-49.67,5.28s0,.02.01.05c3.02,8.74,4.67,18.13,4.67,27.9,0,16.42-4.65,31.74-12.68,44.76-4.71,7.64-10.6,14.47-17.41,20.25-14.89,12.66-34.17,20.32-55.24,20.32-6.26,0-12.35-.69-18.22-1.97-.03,0-.06,0-.09,0-.12,0-.23,0-.35.02-.06,0-.12.03-.18.04-.06.01-.12.02-.18.04-.08.02-.16.06-.24.09-.04.02-.08.03-.12.04-.09.04-.19.09-.29.14-.03.01-.05.02-.08.04-.11.06-.22.13-.33.21-.02.01-.03.02-.05.03-.11.08-.23.16-.35.26-.01,0-.03.02-.04.03-.12.1-.25.2-.38.31,0,0-.01.01-.02.02-.13.12-.27.24-.41.37-7.99,7.43-24.67,36.83-98.51,13.6,28.45,34.94,71.68,57.26,120.1,57.33.08,0,.16,0,.25,0,65.25,0,121.09-40.39,144.13-97.63.16-.4.33-.79.49-1.19.05-.12.09-.24.14-.36,6.87-17.59,10.65-36.72,10.65-56.74,0-.02,0-.05,0-.07,0-.03,0-.05,0-.08Z"/><path d="M196.99,70.2c1.03,6.03-37.2,31.77-54.07,43.7,13.49-8.93,29.66-14.15,47.05-14.15,11.83,0,23.11,2.41,33.35,6.77l-16.99,19.85,41.11-4.37,36.67-3.9V35.5l-13.68,15.98c-23.49-14.17-51.01-22.33-80.45-22.33-24.87,0-48.38,5.83-69.25,16.19,43.26-12.31,76.27,24.85,76.27,24.85Z"/></g><g id="Livello_6_copia_2"><path class="cls-1" d="M168.65,270.07c1.13-1.05,2.08-1.66,3-1.63.03,0,.06,0,.09,0-.59-.13-1.17-.28-1.76-.42-.36.6-.81,1.29-1.34,2.05Z"/><path class="cls-1" d="M196.99,70.2s-33.01-37.16-76.27-24.85c-16.66,8.27-31.63,19.43-44.25,32.83-26.3,27.91-42.43,65.52-42.43,106.9,0,49.4,53.3,105.8,111.55,72.87-24.56-14.98-40.96-42-40.96-72.87,0-26.79,12.35-50.68,31.66-66.32,8.66-7.02,61.92-41.45,60.7-48.56Z"/></g></svg>